<?xml version="1.0" standalone="no"?>
<!DOCTYPE svg PUBLIC "-//W3C//DTD SVG 20010904//EN"
 "http://www.w3.org/TR/2001/REC-SVG-20010904/DTD/svg10.dtd">
<svg version="1.0" xmlns="http://www.w3.org/2000/svg"
 width="400.000000pt" height="400.000000pt" viewBox="0 0 400.000000 400.000000"
 preserveAspectRatio="xMidYMid meet">

<g transform="translate(0.000000,400.000000) scale(0.100000,-0.100000)"
fill="#000000" stroke="none">
<path d="M0 2000 l0 -2000 2000 0 2000 0 0 2000 0 2000 -2000 0 -2000 0 0
-2000z m1960 1620 c8 0 71 3 141 6 110 6 135 4 204 -15 192 -53 343 -179 427
-358 50 -105 59 -155 65 -345 l6 -178 256 0 c227 0 261 -3 296 -19 22 -10 48
-27 57 -37 48 -54 47 -45 68 -942 28 -1238 28 -1179 2 -1229 -14 -27 -38 -51
-66 -68 l-43 -25 -1380 2 -1380 3 -37 29 c-21 16 -47 47 -57 70 -18 39 -19 86
-19 1051 0 971 1 1012 19 1052 22 48 58 83 104 100 21 7 114 12 269 12 l236 1
4 183 c4 164 7 190 31 263 59 178 192 324 364 400 100 45 157 54 293 49 69 -3
132 -5 140 -5z"/>
<path d="M1608 3450 c-148 -60 -252 -171 -303 -323 -23 -68 -25 -91 -25 -236
l0 -161 95 0 95 0 0 168 c0 117 5 186 15 227 24 95 90 218 152 285 61 66 55
74 -29 40z"/>
<path d="M2294 3404 c64 -77 118 -179 142 -269 10 -38 18 -122 21 -233 l6
-173 91 3 91 3 -1 155 c-1 167 -12 227 -61 325 -53 103 -206 225 -317 251 -28
7 -26 4 28 -62z"/>
<path d="M1885 3417 c-118 -63 -215 -189 -250 -322 -10 -41 -15 -107 -15 -212
l0 -153 346 0 346 0 -5 173 c-4 144 -8 182 -26 234 -43 119 -142 233 -253 289
-61 31 -71 30 -143 -9z"/>
<path d="M2320 1939 c-81 -32 -79 -71 9 -229 l70 -124 -38 -17 c-42 -19 -71
-53 -71 -83 0 -16 -3 -17 -12 -8 -7 7 -26 12 -44 12 -38 0 -94 -47 -94 -79 0
-24 0 -24 -34 -11 -48 18 -116 -27 -116 -77 0 -16 48 -113 118 -238 212 -375
232 -403 366 -505 59 -44 78 -51 107 -36 146 76 344 195 357 214 15 22 14 30
-2 93 -12 46 -16 86 -12 117 14 106 34 615 25 639 -20 52 -129 67 -173 24 -17
-17 -21 -40 -27 -147 -4 -69 -9 -128 -12 -130 -2 -2 -73 118 -158 268 -84 150
-163 282 -174 294 -25 28 -53 35 -85 23z"/>
</g>
</svg>
